# xmcd
#
# Track frame offsets: 
#        150
#        24131
#        38394
#        54695
#        70996
#        92782
#        107986
#        123503
#        137139
#        154694
#        185414
#        202498
#        214567
#
# Disc length: 3220 seconds
#
# Revision: 0
# Processed by: cddbd v1.5PL3 Copyright (c) Steve Scherf et al.
# Submitted via: ExactAudioCopy v0.95a4
#
DISCID=b90c920d
DTITLE=Thermal Blues Express - One Day in Sedona
DYEAR=2002
DGENRE=
TTITLE0=Forty till Five
TTITLE1=It's Not You, It's Me
TTITLE2=Sittin' on the Rim
TTITLE3=Don't Care
TTITLE4=Been Lyin' to Myself
TTITLE5=Whore doJour
TTITLE6=I Ain't Yours No More
TTITLE7=Know Blues
TTITLE8=Destiny
TTITLE9=No More Go
TTITLE10=Cheatin' Heart
TTITLE11=Self Imposed Blues
TTITLE12=Done Gone
EXTD=
EXTT0=
EXTT1=
EXTT2=
EXTT3=
EXTT4=
EXTT5=
EXTT6=
EXTT7=
EXTT8=
EXTT9=
EXTT10=
EXTT11=
EXTT12=
PLAYORDER=
